<svg width="20" height="20" viewBox="0 0 20 20" fill="none" xmlns="http://www.w3.org/2000/svg">
<path d="M10 0C4.47917 0 0 4.47917 0 10C0 15.5208 4.47917 20 10 20C15.5208 20 20 15.5208 20 10C20 4.47917 15.5241 0 10 0ZM4.9349 10.3353L4.97721 10.2669L7.57812 6.19792C7.61719 6.13932 7.70508 6.14583 7.73438 6.21094C8.16732 7.18424 8.54492 8.39518 8.36914 9.15039C8.29427 9.45963 8.08919 9.87956 7.85482 10.2669C7.82552 10.3255 7.79297 10.3809 7.75716 10.4329C7.74088 10.459 7.71484 10.472 7.68555 10.472H5.00977C4.93815 10.472 4.89583 10.3939 4.9349 10.3353ZM16.5267 11.735C16.5267 11.7741 16.5072 11.8066 16.4746 11.8197C16.2728 11.9076 15.5827 12.2233 15.2962 12.6204C14.5638 13.6393 14.0072 15.0944 12.7572 15.0944H7.54557C5.69662 15.0944 4.19922 13.5937 4.19922 11.7415V11.6797C4.19922 11.6309 4.24154 11.5918 4.29036 11.5918H7.19401C7.2526 11.5918 7.29492 11.6439 7.28841 11.7025C7.26888 11.8913 7.30469 12.0833 7.39258 12.2591C7.5651 12.6107 7.92318 12.8288 8.31055 12.8288H9.74935V11.7057H8.32682C8.25521 11.7057 8.20963 11.6211 8.25195 11.5625C8.26823 11.5365 8.2845 11.5137 8.30404 11.4844C8.4375 11.2956 8.62956 10.9993 8.82162 10.6608C8.95182 10.4329 9.07878 10.1888 9.17969 9.94466C9.19922 9.89909 9.2155 9.85352 9.23503 9.8112C9.26107 9.73307 9.29037 9.6582 9.3099 9.58659C9.32943 9.52474 9.34896 9.45963 9.36523 9.40104C9.41081 9.19271 9.43359 8.97135 9.43359 8.74349C9.43359 8.6556 9.42708 8.5612 9.42057 8.47331C9.41732 8.3724 9.4043 8.27474 9.39128 8.17708C9.38477 8.09245 9.36849 8.00456 9.35221 7.91667C9.32943 7.78646 9.30338 7.6595 9.27083 7.5293L9.25781 7.47721C9.23503 7.38932 9.21224 7.30469 9.18294 7.21354C9.10156 6.93359 9.01042 6.66016 8.9095 6.403C8.8737 6.30208 8.83463 6.20443 8.79232 6.10677C8.73047 5.96029 8.66862 5.82682 8.61328 5.69987C8.58398 5.64128 8.5612 5.58919 8.53516 5.53711C8.50912 5.47526 8.47982 5.41667 8.45052 5.35807C8.43099 5.3125 8.40495 5.27344 8.38867 5.23112L8.21289 4.90885C8.1901 4.86328 8.22917 4.8112 8.27799 4.82422L9.37825 5.12044H9.38151C9.38477 5.12044 9.38477 5.12044 9.38477 5.12044L9.53125 5.16276L9.69075 5.20833L9.74935 5.22461V4.57357C9.74935 4.25456 10 4.00065 10.3125 4.00065C10.4688 4.00065 10.612 4.0625 10.7129 4.16667C10.8138 4.27083 10.8789 4.41406 10.8789 4.57357V5.54362L10.9961 5.57292C11.0026 5.57943 11.0156 5.58268 11.0221 5.58919C11.0514 5.60872 11.0905 5.64128 11.1426 5.68034C11.1849 5.71289 11.2305 5.75195 11.2826 5.79427C11.3867 5.87891 11.5169 5.98958 11.6536 6.11654C11.6895 6.14909 11.7253 6.17838 11.7611 6.21419C11.9368 6.38021 12.1387 6.57552 12.3307 6.79037C12.3828 6.85221 12.4349 6.91081 12.4902 6.97917C12.5423 7.04427 12.6009 7.10937 12.6465 7.17122C12.7148 7.25911 12.7832 7.34701 12.8451 7.44141C12.8711 7.48698 12.9069 7.53255 12.9329 7.57487C13.0111 7.69531 13.0794 7.81575 13.1445 7.93945C13.1738 7.99479 13.2031 8.05664 13.2259 8.11523C13.3008 8.28125 13.3594 8.44727 13.3952 8.61328C13.4049 8.64909 13.4147 8.68815 13.418 8.72396V8.73047C13.431 8.7793 13.4342 8.83138 13.4375 8.88672C13.4538 9.05599 13.4473 9.22852 13.4115 9.40104C13.3952 9.47266 13.3724 9.54102 13.3496 9.61263C13.3236 9.68425 13.3008 9.75586 13.2682 9.82747C13.2064 9.96745 13.1348 10.1107 13.0469 10.2441C13.0208 10.293 12.985 10.3451 12.9525 10.3971C12.9167 10.4492 12.8809 10.498 12.8483 10.5469C12.8027 10.6087 12.7539 10.6706 12.7051 10.7292C12.6595 10.791 12.6172 10.8496 12.5651 10.9049C12.4967 10.9863 12.4316 11.0612 12.3633 11.1361C12.321 11.1849 12.2786 11.2337 12.2331 11.2793C12.1875 11.3281 12.1419 11.3704 12.1029 11.4128C12.0312 11.4811 11.9759 11.5332 11.9271 11.5788L11.8132 11.6829C11.7969 11.6992 11.7773 11.7057 11.7546 11.7057H10.8789V12.8288H11.9792C12.2266 12.8288 12.4609 12.7409 12.6497 12.5814C12.7148 12.5228 12.9948 12.2786 13.3301 11.9108C13.3431 11.8978 13.3561 11.8913 13.3724 11.8848L16.4128 11.0059C16.4714 10.9896 16.5267 11.0319 16.5267 11.0905V11.735Z" fill="white"/>
</svg>
