<svg width="20" height="20" viewBox="0 0 20 20" fill="none" xmlns="http://www.w3.org/2000/svg">
<g clip-path="url(#clip0_302_228)">
<path d="M16.9308 3.64149C15.6342 3.04629 14.2658 2.62186 12.8599 2.37882C12.8472 2.37644 12.834 2.37815 12.8222 2.3837C12.8105 2.38925 12.8008 2.39836 12.7945 2.40974C12.6187 2.72249 12.4239 3.13041 12.2876 3.45099C10.7503 3.22082 9.22092 3.22082 7.71525 3.45099C7.57892 3.12324 7.37709 2.72249 7.2005 2.40974C7.19396 2.39862 7.18422 2.38973 7.17255 2.38423C7.16088 2.37873 7.14783 2.37688 7.13509 2.37891C5.72907 2.62138 4.36058 3.04578 3.06409 3.64141C3.053 3.64615 3.04365 3.65421 3.03734 3.66449C0.444503 7.53816 -0.26583 11.3166 0.08267 15.0482C0.0836554 15.0573 0.0864643 15.0661 0.0909304 15.0742C0.0953964 15.0822 0.101429 15.0893 0.10867 15.0949C1.81934 16.3512 3.47642 17.1139 5.10275 17.6194C5.1154 17.6232 5.1289 17.623 5.14144 17.6189C5.15398 17.6148 5.16496 17.6069 5.17292 17.5964C5.55759 17.0711 5.9005 16.5171 6.19459 15.9346C6.19863 15.9266 6.20094 15.9179 6.20136 15.9089C6.20178 15.9 6.2003 15.8911 6.19703 15.8828C6.19375 15.8744 6.18875 15.8669 6.18236 15.8607C6.17596 15.8544 6.16831 15.8496 6.15992 15.8465C5.61592 15.6402 5.098 15.3886 4.59975 15.1029C4.59067 15.0976 4.58304 15.0901 4.57753 15.0811C4.57203 15.0721 4.56882 15.0619 4.56819 15.0514C4.56757 15.0409 4.56954 15.0304 4.57394 15.0208C4.57834 15.0112 4.58503 15.0029 4.59342 14.9965C4.69825 14.9179 4.80317 14.8362 4.90325 14.7537C4.91215 14.7463 4.92292 14.7416 4.93434 14.7401C4.94577 14.7385 4.9574 14.7402 4.96792 14.7449C8.24109 16.2393 11.7846 16.2393 15.0191 14.7449C15.0296 14.7399 15.0414 14.738 15.0529 14.7394C15.0645 14.7408 15.0755 14.7454 15.0845 14.7528C15.1847 14.8353 15.2895 14.9179 15.3952 14.9965C15.4036 15.0028 15.4103 15.0111 15.4148 15.0206C15.4192 15.0301 15.4213 15.0406 15.4207 15.0511C15.4202 15.0616 15.4171 15.0718 15.4117 15.0809C15.4062 15.0899 15.3987 15.0974 15.3897 15.1028C14.8912 15.3939 14.3691 15.6424 13.8288 15.8457C13.8204 15.8489 13.8128 15.8538 13.8065 15.8602C13.8001 15.8665 13.7952 15.8741 13.792 15.8825C13.7888 15.8909 13.7874 15.8999 13.7879 15.9089C13.7884 15.9178 13.7908 15.9266 13.7949 15.9346C14.0953 16.5162 14.4382 17.0702 14.8158 17.5956C14.8235 17.6064 14.8344 17.6145 14.847 17.6188C14.8596 17.6231 14.8732 17.6233 14.8859 17.6194C16.5201 17.1138 18.1772 16.3512 19.8878 15.0949C19.8952 15.0895 19.9013 15.0827 19.9058 15.0747C19.9103 15.0668 19.9131 15.058 19.9139 15.0489C20.3309 10.7347 19.2154 6.98733 16.9568 3.66524C16.9513 3.65445 16.9421 3.64599 16.9308 3.64141V3.64149ZM6.68334 12.776C5.69792 12.776 4.88592 11.8712 4.88592 10.7602C4.88592 9.64916 5.68217 8.74441 6.68342 8.74441C7.69242 8.74441 8.4965 9.65708 8.48075 10.7602C8.48075 11.8712 7.6845 12.776 6.68334 12.776ZM13.329 12.776C12.3436 12.776 11.5316 11.8712 11.5316 10.7602C11.5316 9.64916 12.3278 8.74441 13.329 8.74441C14.338 8.74441 15.1421 9.65708 15.1263 10.7602C15.1263 11.8712 14.338 12.776 13.329 12.776Z" fill="white"/>
</g>
<defs>
<clipPath id="clip0_302_228">
<rect width="20" height="20" fill="white"/>
</clipPath>
</defs>
</svg>
