<svg width="20" height="20" viewBox="0 0 20 20" fill="none" xmlns="http://www.w3.org/2000/svg">
<g clip-path="url(#clip0_302_230)">
<path d="M4.15371 9.11442C4.15371 8.89958 4.2416 8.69125 4.40436 8.53825C4.56387 8.38851 4.77871 8.30062 5.00332 8.30388L6.41608 8.30713C6.88483 8.30713 7.26244 8.67171 7.26244 9.12093V14.2316C7.42194 14.186 7.62702 14.1405 7.84837 14.0884C8.16739 14.0168 8.39525 13.7433 8.39525 13.4308V7.08968C8.39525 6.64046 8.77285 6.27588 9.2416 6.27588H10.6544C11.1231 6.27588 11.504 6.64046 11.504 7.08968V12.9751C11.504 12.9751 11.8588 12.8384 12.2038 12.6984C12.4643 12.591 12.6335 12.3468 12.6335 12.0734V5.05518C12.6335 4.60921 13.0144 4.24463 13.4831 4.24463H14.8959C15.3646 4.24463 15.7455 4.60921 15.7455 5.05518V10.8332C16.9695 9.98356 18.213 8.95817 19.196 7.7277C19.489 7.36638 19.5704 6.88786 19.4141 6.45492C18.0469 2.63981 14.3262 0.0551755 10.1173 -0.000163044C4.57689 -0.0717776 6.83078e-05 4.26416 6.83078e-05 9.57341C-0.00644211 11.2531 0.452542 12.9035 1.32819 14.3618C1.57233 14.7687 2.04108 14.9998 2.53262 14.9608C2.79955 14.938 3.13158 14.9054 3.52871 14.8599C3.88353 14.8208 4.15371 14.5311 4.15371 14.1893V9.11442Z" fill="white"/>
<path d="M4.12109 17.3145C7.16146 19.4303 11.1816 19.7363 14.5313 18.1022C17.8776 16.4681 19.9837 13.1738 19.9837 9.57357C19.9837 9.35221 19.974 9.13411 19.9577 8.91602C16.3086 14.1341 9.57031 16.5723 4.12109 17.3145Z" fill="white"/>
</g>
<defs>
<clipPath id="clip0_302_230">
<rect width="20" height="20" fill="white"/>
</clipPath>
</defs>
</svg>
