<svg width="20" height="20" viewBox="0 0 20 20" fill="none" xmlns="http://www.w3.org/2000/svg">
<path d="M19.9608 3.80832C19.2121 4.138 18.4188 4.35561 17.6067 4.45416C18.4618 3.9402 19.102 3.1342 19.4092 2.18499C18.6167 2.64749 17.7383 2.98416 16.8033 3.17166C16.1865 2.51202 15.3691 2.07451 14.478 1.92708C13.587 1.77964 12.6722 1.93053 11.8758 2.35632C11.0793 2.7821 10.4457 3.45895 10.0734 4.28176C9.70104 5.10457 9.6108 6.0273 9.81667 6.90666C6.40833 6.74582 3.38917 5.10832 1.36667 2.63499C0.998995 3.25984 0.80722 3.97251 0.811667 4.69749C0.811667 6.12249 1.53667 7.37499 2.635 8.11082C1.98405 8.0901 1.34748 7.9141 0.778333 7.59749V7.64749C0.777964 8.59448 1.10522 9.51244 1.70459 10.2456C2.30395 10.9788 3.13851 11.4821 4.06667 11.67C3.46525 11.8311 2.83534 11.8553 2.22333 11.7408C2.48677 12.5558 2.99805 13.2683 3.68585 13.7787C4.37364 14.2892 5.20363 14.5722 6.06 14.5883C4.60961 15.7266 2.81873 16.3444 0.975 16.3425C0.65 16.3425 0.325833 16.3233 0 16.2867C1.87976 17.4903 4.06543 18.1292 6.2975 18.1275C13.8417 18.1275 17.9625 11.8808 17.9625 6.47332C17.9625 6.29832 17.9625 6.12332 17.95 5.94832C18.755 5.36904 19.4494 4.64984 20 3.82499L19.9608 3.80832Z" fill="white"/>
</svg>
